<?xml version="1.0" standalone="no"?>
<!DOCTYPE svg PUBLIC "-//W3C//DTD SVG 20010904//EN"
 "http://www.w3.org/TR/2001/REC-SVG-20010904/DTD/svg10.dtd">
<svg version="1.0" xmlns="http://www.w3.org/2000/svg"
 width="512.000000pt" height="512.000000pt" viewBox="0 0 512.000000 512.000000"
 preserveAspectRatio="xMidYMid meet">
<metadata>
Created by potrace 1.14, written by Peter Selinger 2001-2017
</metadata>
<g transform="translate(0.000000,512.000000) scale(0.100000,-0.100000)"
fill="#000000" stroke="none">
<path d="M265 4270 c-59 -15 -86 -30 -135 -76 -119 -112 -120 -296 -1 -407 70
-66 107 -79 239 -85 l112 -5 0 -202 0 -203 -117 -4 c-108 -3 -123 -6 -171 -33
-59 -32 -91 -66 -125 -129 -17 -32 -22 -59 -22 -121 0 -96 26 -156 93 -216 66
-58 112 -69 283 -69 l147 0 -1 -79 c0 -67 4 -87 27 -135 30 -61 88 -115 152
-142 25 -11 80 -18 152 -22 l112 -5 0 -202 0 -203 -122 -4 c-139 -4 -175 -17
-240 -85 -86 -88 -105 -214 -50 -324 l30 -61 -31 -59 c-25 -48 -30 -70 -30
-126 1 -115 54 -202 154 -252 59 -29 69 -31 176 -31 l113 0 0 -210 0 -210
-113 0 c-107 0 -117 -2 -176 -31 -178 -89 -208 -330 -59 -464 90 -81 -58 -75
1874 -75 1440 0 1734 2 1796 14 211 41 394 162 513 342 163 245 165 579 7 834
-52 85 -154 191 -224 235 -27 17 -48 32 -48 35 0 3 17 14 37 25 55 30 194 171
237 242 187 310 144 700 -106 954 -122 125 -265 198 -443 227 l-103 16 51 62
c73 88 115 161 148 256 148 432 -94 884 -540 1011 l-76 22 -1745 2 c-960 0
-1758 -2 -1775 -7z m3211 -247 c27 -27 60 -63 72 -80 l23 -33 -1636 0 c-1028
0 -1643 4 -1654 10 -31 16 -46 65 -31 100 7 17 20 35 29 40 10 6 616 10 1582
10 l1566 0 49 -47z m285 -346 c158 -83 136 -322 -34 -372 -44 -13 -243 -15
-1544 -15 l-1493 0 0 75 0 75 729 0 c802 0 761 -3 761 60 0 62 29 60 -767 60
l-723 0 0 70 0 70 1513 0 1514 0 44 -23z m248 -1025 c32 -31 63 -67 70 -80
l12 -22 -1636 0 -1636 0 -24 25 c-16 15 -25 36 -25 55 0 19 9 40 25 55 l24 25
1566 0 1567 0 57 -58z m298 -348 c21 -17 48 -46 61 -65 l23 -34 -486 -5 c-467
-5 -487 -6 -501 -24 -18 -25 -18 -46 2 -74 l15 -22 480 0 c350 0 479 -3 479
-11 0 -27 -45 -81 -88 -107 l-47 -27 -1517 -3 -1518 -2 0 205 0 205 1529 -2
1529 -3 39 -31z m-207 -953 c209 -7 230 -10 292 -34 170 -66 288 -190 349
-367 29 -85 31 -237 5 -325 -46 -153 -160 -291 -296 -357 -140 -67 -14 -63
-1908 -63 l-1724 0 -24 28 c-38 45 -31 98 17 122 24 13 256 15 1733 15 1645 0
1706 1 1765 19 121 37 204 110 258 227 25 53 28 70 28 164 0 99 -2 110 -33
172 -57 115 -148 192 -267 222 -52 14 -256 16 -1768 16 l-1708 0 -24 25 c-43
42 -29 112 26 134 29 12 2942 13 3279 2z m174 -386 c144 -69 159 -266 28 -356
-34 -23 -44 -24 -281 -32 -135 -4 -822 -6 -1526 -5 l-1280 3 -3 73 -3 72 360
0 360 0 15 22 c21 30 20 54 -4 78 -19 19 -33 20 -375 20 l-355 0 0 70 0 70
1516 0 c1344 0 1520 -2 1548 -15z"/>
<path d="M2200 2180 c-11 -11 -20 -29 -20 -40 0 -11 9 -29 20 -40 19 -19 33
-20 444 -20 l425 0 15 22 c21 30 20 54 -4 78 -19 19 -33 20 -440 20 -407 0
-421 -1 -440 -20z"/>
<path d="M2287 822 c-22 -24 -21 -65 1 -85 17 -16 90 -17 849 -17 791 0 831 1
846 18 22 24 21 65 -1 85 -17 16 -90 17 -849 17 -791 0 -831 -1 -846 -18z"/>
</g>
</svg>
